<?xml version="1.0" encoding="UTF-8"?>
<svg xmlns="http://www.w3.org/2000/svg" xmlns:xlink="http://www.w3.org/1999/xlink" width="1920" height="609" preserveAspectRatio="xMidYMid" viewBox="0 0 1920 609" style="z-index:1;display:block;background-color:rgb(241, 242, 243);animation-play-state:paused"><g transform="" style="animation-play-state:paused"><g id="bk-0.05064492725704706" style="animation-play-state:paused"><path d="M986 246L1157 433L1163 235z" stroke="#5da62b" fill="#5da62b" style="animation-play-state:paused"/>
<path d="M986 246L985 442L1157 433z" stroke="#68ad2b" fill="#68ad2b" style="animation-play-state:paused"/>
<path d="M1355 242L1162 48L1163 235z" stroke="#2a882c" fill="#2a882c" style="animation-play-state:paused"/>
<path d="M1163 235L1162 48L986 246z" stroke="#4c9c2c" fill="#4c9c2c" style="animation-play-state:paused"/>
<path d="M1157 433L1355 242L1163 235z" stroke="#358e2c" fill="#358e2c" style="animation-play-state:paused"/>
<path d="M961 34L788 242L986 246z" stroke="#5ea72b" fill="#5ea72b" style="animation-play-state:paused"/>
<path d="M986 246L794 431L985 442z" stroke="#71b22a" fill="#71b22a" style="animation-play-state:paused"/>
<path d="M788 242L794 431L986 246z" stroke="#69ad2b" fill="#69ad2b" style="animation-play-state:paused"/>
<path d="M794 431L972 607L985 442z" stroke="#4c9c2c" fill="#4c9c2c" style="animation-play-state:paused"/>
<path d="M985 442L1173 625L1157 433z" stroke="#3c922c" fill="#3c922c" style="animation-play-state:paused"/>
<path d="M1157 433L1382 421L1355 242z" stroke="#167f2c" fill="#167f2c" style="animation-play-state:paused"/>
<path d="M1162 48L961 34L986 246z" stroke="#47992c" fill="#47992c" style="animation-play-state:paused"/>
<path d="M1173 625L1382 421L1157 433z" stroke="#1a802c" fill="#1a802c" style="animation-play-state:paused"/>
<path d="M972 607L1173 625L985 442z" stroke="#348e2c" fill="#348e2c" style="animation-play-state:paused"/>
<path d="M1355 242L1357 30L1162 48z" stroke="#067a2b" fill="#067a2b" style="animation-play-state:paused"/>
<path d="M1156 -151L978 -140L961 34z" stroke="#0e7c2b" fill="#0e7c2b" style="animation-play-state:paused"/>
<path d="M1546 237L1357 30L1355 242z" stroke="#318c2c" fill="#318c2c" style="animation-play-state:paused"/>
<path d="M961 34L790 41L788 242z" stroke="#41952c" fill="#41952c" style="animation-play-state:paused"/>
<path d="M583 620L792 612L794 431z" stroke="#167f2b" fill="#167f2b" style="animation-play-state:paused"/>
<path d="M1173 625L1357 628L1382 421z" stroke="#1d822c" fill="#1d822c" style="animation-play-state:paused"/>
<path d="M794 431L792 612L972 607z" stroke="#348e2c" fill="#348e2c" style="animation-play-state:paused"/>
<path d="M972 607L991 828L1173 625z" stroke="#0a7b2b" fill="#0a7b2b" style="animation-play-state:paused"/>
<path d="M1173 625L1363 808L1357 628z" stroke="#3b922c" fill="#3b922c" style="animation-play-state:paused"/>
<path d="M599 225L794 431L788 242z" stroke="#3f942c" fill="#3f942c" style="animation-play-state:paused"/>
<path d="M1555 621L1556 420L1382 421z" stroke="#4e9d2c" fill="#4e9d2c" style="animation-play-state:paused"/>
<path d="M1382 421L1556 420L1355 242z" stroke="#2f8b2c" fill="#2f8b2c" style="animation-play-state:paused"/>
<path d="M1156 -151L961 34L1162 48z" stroke="#117d2b" fill="#117d2b" style="animation-play-state:paused"/>
<path d="M961 34L777 -162L790 41z" stroke="#117d2b" fill="#117d2b" style="animation-play-state:paused"/>
<path d="M1367 -153L1156 -151L1162 48z" stroke="#2f8b2c" fill="#2f8b2c" style="animation-play-state:paused"/>
<path d="M1556 420L1546 237L1355 242z" stroke="#40952c" fill="#40952c" style="animation-play-state:paused"/>
<path d="M790 41L599 225L788 242z" stroke="#338d2c" fill="#338d2c" style="animation-play-state:paused"/>
<path d="M793 832L991 828L972 607z" stroke="#27872c" fill="#27872c" style="animation-play-state:paused"/>
<path d="M599 225L594 414L794 431z" stroke="#27872c" fill="#27872c" style="animation-play-state:paused"/>
<path d="M792 612L793 832L972 607z" stroke="#0c7b2b" fill="#0c7b2b" style="animation-play-state:paused"/>
<path d="M991 828L1167 828L1173 625z" stroke="#318c2c" fill="#318c2c" style="animation-play-state:paused"/>
<path d="M978 -140L777 -162L961 34z" stroke="#0e7c2b" fill="#0e7c2b" style="animation-play-state:paused"/>
<path d="M790 41L593 30L599 225z" stroke="#0a7b2b" fill="#0a7b2b" style="animation-play-state:paused"/>
<path d="M1546 237L1548 33L1357 30z" stroke="#4c9c2c" fill="#4c9c2c" style="animation-play-state:paused"/>
<path d="M1357 30L1367 -153L1162 48z" stroke="#2e8a2c" fill="#2e8a2c" style="animation-play-state:paused"/>
<path d="M1548 33L1367 -153L1357 30z" stroke="#4f9e2c" fill="#4f9e2c" style="animation-play-state:paused"/>
<path d="M1167 828L1363 808L1173 625z" stroke="#41952c" fill="#41952c" style="animation-play-state:paused"/>
<path d="M1357 628L1555 621L1382 421z" stroke="#43972c" fill="#43972c" style="animation-play-state:paused"/>
<path d="M1560 834L1555 621L1357 628z" stroke="#6baf2b" fill="#6baf2b" style="animation-play-state:paused"/>
<path d="M1556 420L1754 234L1546 237z" stroke="#6caf2b" fill="#6caf2b" style="animation-play-state:paused"/>
<path d="M594 414L583 620L794 431z" stroke="#107d2b" fill="#107d2b" style="animation-play-state:paused"/>
<path d="M777 -162L593 30L790 41z" stroke="#167f2c" fill="#167f2c" style="animation-play-state:paused"/>
<path d="M599 225L399 241L594 414z" stroke="#1e822c" fill="#1e822c" style="animation-play-state:paused"/>
<path d="M594 822L793 832L792 612z" stroke="#3a912c" fill="#3a912c" style="animation-play-state:paused"/>
<path d="M991 828L793 832L1167 828z" stroke="#40952c" fill="#40952c" style="animation-play-state:paused"/>
<path d="M1548 33L1562 -157L1367 -153z" stroke="#6db02b" fill="#6db02b" style="animation-play-state:paused"/>
<path d="M1367 -153L1747 -171L1156 -151z" stroke="#6aae2b" fill="#6aae2b" style="animation-play-state:paused"/>
<path d="M1740 23L1562 -157L1548 33z" stroke="#86be29" fill="#86be29" style="animation-play-state:paused"/>
<path d="M1767 432L1754 234L1556 420z" stroke="#85bd29" fill="#85bd29" style="animation-play-state:paused"/>
<path d="M1546 237L1740 23L1548 33z" stroke="#74b32a" fill="#74b32a" style="animation-play-state:paused"/>
<path d="M593 30L399 241L599 225z" stroke="#27872c" fill="#27872c" style="animation-play-state:paused"/>
<path d="M594 414L395 618L583 620z" stroke="#38902c" fill="#38902c" style="animation-play-state:paused"/>
<path d="M978 -140L570 -165L777 -162z" stroke="#368f2c" fill="#368f2c" style="animation-play-state:paused"/>
<path d="M777 -162L570 -165L593 30z" stroke="#3b922c" fill="#3b922c" style="animation-play-state:paused"/>
<path d="M593 30L404 44L399 241z" stroke="#43962c" fill="#43962c" style="animation-play-state:paused"/>
<path d="M1156 -151L570 -165L978 -140z" stroke="#2a882c" fill="#2a882c" style="animation-play-state:paused"/>
<path d="M1747 -171L570 -165L1156 -151z" stroke="#3a912c" fill="#3a912c" style="animation-play-state:paused"/>
<path d="M1555 621L1767 432L1556 420z" stroke="#76b52a" fill="#76b52a" style="animation-play-state:paused"/>
<path d="M1167 828L1560 834L1363 808z" stroke="#6bae2b" fill="#6bae2b" style="animation-play-state:paused"/>
<path d="M1363 808L1560 834L1357 628z" stroke="#69ad2b" fill="#69ad2b" style="animation-play-state:paused"/>
<path d="M1555 621L1742 619L1767 432z" stroke="#87be29" fill="#87be29" style="animation-play-state:paused"/>
<path d="M583 620L594 822L792 612z" stroke="#338d2c" fill="#338d2c" style="animation-play-state:paused"/>
<path d="M395 618L594 822L583 620z" stroke="#52a02c" fill="#52a02c" style="animation-play-state:paused"/>
<path d="M399 241L398 430L594 414z" stroke="#38902c" fill="#38902c" style="animation-play-state:paused"/>
<path d="M1754 234L1740 23L1546 237z" stroke="#84bd29" fill="#84bd29" style="animation-play-state:paused"/>
<path d="M404 -151L404 44L593 30z" stroke="#56a22c" fill="#56a22c" style="animation-play-state:paused"/>
<path d="M200 217L199 420L398 430z" stroke="#78b62a" fill="#78b62a" style="animation-play-state:paused"/>
<path d="M1560 834L1742 619L1555 621z" stroke="#89bf29" fill="#89bf29" style="animation-play-state:paused"/>
<path d="M398 430L395 618L594 414z" stroke="#42962c" fill="#42962c" style="animation-play-state:paused"/>
<path d="M1740 23L1747 -171L1562 -157z" stroke="#73b32a" fill="#73b32a" style="animation-play-state:paused"/>
<path d="M1562 -157L1747 -171L1367 -153z" stroke="#8bc129" fill="#8bc129" style="animation-play-state:paused"/>
<path d="M1937 -171L1747 -171L1740 23z" stroke="#4e9d2c" fill="#4e9d2c" style="animation-play-state:paused"/>
<path d="M570 -165L404 -151L593 30z" stroke="#56a22c" fill="#56a22c" style="animation-play-state:paused"/>
<path d="M200 217L398 430L399 241z" stroke="#61a92b" fill="#61a92b" style="animation-play-state:paused"/>
<path d="M395 618L385 806L594 822z" stroke="#6fb12a" fill="#6fb12a" style="animation-play-state:paused"/>
<path d="M594 822L385 806L793 832z" stroke="#63aa2b" fill="#63aa2b" style="animation-play-state:paused"/>
<path d="M199 613L385 806L395 618z" stroke="#85bd29" fill="#85bd29" style="animation-play-state:paused"/>
<path d="M1167 828L1767 819L1560 834z" stroke="#8ac029" fill="#8ac029" style="animation-play-state:paused"/>
<path d="M1560 834L1767 819L1742 619z" stroke="#69ad2b" fill="#69ad2b" style="animation-play-state:paused"/>
<path d="M1940 630L1956 417L1767 432z" stroke="#4d9c2c" fill="#4d9c2c" style="animation-play-state:paused"/>
<path d="M1940 630L1767 432L1742 619z" stroke="#5ea72b" fill="#5ea72b" style="animation-play-state:paused"/>
<path d="M1767 432L1956 417L1754 234z" stroke="#66ac2b" fill="#66ac2b" style="animation-play-state:paused"/>
<path d="M1754 234L1942 50L1740 23z" stroke="#64aa2b" fill="#64aa2b" style="animation-play-state:paused"/>
<path d="M1956 417L1961 227L1754 234z" stroke="#52a02c" fill="#52a02c" style="animation-play-state:paused"/>
<path d="M200 217L399 241L206 56z" stroke="#7bb72a" fill="#7bb72a" style="animation-play-state:paused"/>
<path d="M398 430L199 613L395 618z" stroke="#71b22a" fill="#71b22a" style="animation-play-state:paused"/>
<path d="M206 56L399 241L404 44z" stroke="#69ad2b" fill="#69ad2b" style="animation-play-state:paused"/>
<path d="M404 -151L206 56L404 44z" stroke="#79b72a" fill="#79b72a" style="animation-play-state:paused"/>
<path d="M1961 227L1942 50L1754 234z" stroke="#509f2c" fill="#509f2c" style="animation-play-state:paused"/>
<path d="M1945 808L1940 630L1742 619z" stroke="#3e942c" fill="#3e942c" style="animation-play-state:paused"/>
<path d="M1956 417L2157 241L1961 227z" stroke="#25852c" fill="#25852c" style="animation-play-state:paused"/>
<path d="M1961 227L2157 241L1942 50z" stroke="#23852c" fill="#23852c" style="animation-play-state:paused"/>
<path d="M199 420L199 613L398 430z" stroke="#7fba2a" fill="#7fba2a" style="animation-play-state:paused"/>
<path d="M1942 50L1937 -171L1740 23z" stroke="#44972c" fill="#44972c" style="animation-play-state:paused"/>
<path d="M1767 819L1945 808L1742 619z" stroke="#46992c" fill="#46992c" style="animation-play-state:paused"/>
<path d="M404 -151L192 -158L206 56z" stroke="#7fba2a" fill="#7fba2a" style="animation-play-state:paused"/>
<path d="M-6 236L-5 439L200 217z" stroke="#5da62b" fill="#5da62b" style="animation-play-state:paused"/>
<path d="M570 -165L192 -158L404 -151z" stroke="#85bd29" fill="#85bd29" style="animation-play-state:paused"/>
<path d="M1747 -171L192 -158L570 -165z" stroke="#338d2c" fill="#338d2c" style="animation-play-state:paused"/>
<path d="M9 620L189 828L199 613z" stroke="#58a32b" fill="#58a32b" style="animation-play-state:paused"/>
<path d="M199 613L189 828L385 806z" stroke="#72b32a" fill="#72b32a" style="animation-play-state:paused"/>
<path d="M385 806L189 828L793 832z" stroke="#81bb2a" fill="#81bb2a" style="animation-play-state:paused"/>
<path d="M793 832L189 828L1167 828z" stroke="#529f2c" fill="#529f2c" style="animation-play-state:paused"/>
<path d="M2147 434L2157 241L1956 417z" stroke="#03792b" fill="#03792b" style="animation-play-state:paused"/>
<path d="M1942 50L2134 34L1937 -171z" stroke="#177f2c" fill="#177f2c" style="animation-play-state:paused"/>
<path d="M2147 434L1956 417L1940 630z" stroke="#22842c" fill="#22842c" style="animation-play-state:paused"/>
<path d="M2139 611L2147 434L1940 630z" stroke="#00782b" fill="#00782b" style="animation-play-state:paused"/>
<path d="M200 217L-5 439L199 420z" stroke="#73b32a" fill="#73b32a" style="animation-play-state:paused"/>
<path d="M199 420L9 620L199 613z" stroke="#69ad2b" fill="#69ad2b" style="animation-play-state:paused"/>
<path d="M-6 236L200 217L206 56z" stroke="#70b12a" fill="#70b12a" style="animation-play-state:paused"/>
<path d="M-17 21L-6 236L206 56z" stroke="#55a12c" fill="#55a12c" style="animation-play-state:paused"/>
<path d="M2157 241L2134 34L1942 50z" stroke="#00782b" fill="#00782b" style="animation-play-state:paused"/>
<path d="M2133 829L2139 611L1940 630z" stroke="#00782b" fill="#00782b" style="animation-play-state:paused"/>
<path d="M-5 439L9 620L199 420z" stroke="#58a32b" fill="#58a32b" style="animation-play-state:paused"/>
<path d="M192 -158L-17 21L206 56z" stroke="#5da62b" fill="#5da62b" style="animation-play-state:paused"/>
<path d="M2351 25L2134 34L2157 241z" stroke="#00782b" fill="#00782b" style="animation-play-state:paused"/>
<path d="M2358 -152L2152 -156L2134 34z" stroke="#00782b" fill="#00782b" style="animation-play-state:paused"/>
<path d="M2134 34L2152 -156L1937 -171z" stroke="#00782b" fill="#00782b" style="animation-play-state:paused"/>
<path d="M2350 421L2157 241L2147 434z" stroke="#00782b" fill="#00782b" style="animation-play-state:paused"/>
<path d="M1945 808L2133 829L1940 630z" stroke="#00782b" fill="#00782b" style="animation-play-state:paused"/>
<path d="M1767 819L2133 829L1945 808z" stroke="#0e7c2b" fill="#0e7c2b" style="animation-play-state:paused"/>
<path d="M192 -158L2 -165L-17 21z" stroke="#3f942c" fill="#3f942c" style="animation-play-state:paused"/>
<path d="M-180 427L9 620L-5 439z" stroke="#2f8b2c" fill="#2f8b2c" style="animation-play-state:paused"/>
<path d="M-200 809L-2 822L9 620z" stroke="#0b7b2b" fill="#0b7b2b" style="animation-play-state:paused"/>
<path d="M9 620L-2 822L189 828z" stroke="#3b922c" fill="#3b922c" style="animation-play-state:paused"/>
<path d="M2350 421L2347 234L2157 241z" stroke="#00782b" fill="#00782b" style="animation-play-state:paused"/>
<path d="M2350 421L2147 434L2335 634z" stroke="#00782b" fill="#00782b" style="animation-play-state:paused"/>
<path d="M2335 634L2147 434L2139 611z" stroke="#00782b" fill="#00782b" style="animation-play-state:paused"/>
<path d="M-184 237L-180 427L-5 439z" stroke="#1d812c" fill="#1d812c" style="animation-play-state:paused"/>
<path d="M-184 237L-5 439L-6 236z" stroke="#338d2c" fill="#338d2c" style="animation-play-state:paused"/>
<path d="M-184 237L-6 236L-205 50z" stroke="#167f2b" fill="#167f2b" style="animation-play-state:paused"/>
<path d="M-205 50L-6 236L-17 21z" stroke="#28872c" fill="#28872c" style="animation-play-state:paused"/>
<path d="M2350 421L2351 25L2347 234z" stroke="#00782b" fill="#00782b" style="animation-play-state:paused"/>
<path d="M2347 234L2351 25L2157 241z" stroke="#00782b" fill="#00782b" style="animation-play-state:paused"/>
<path d="M2330 803L2335 634L2139 611z" stroke="#00782b" fill="#00782b" style="animation-play-state:paused"/>
<path d="M2350 421L2335 634L2351 25z" stroke="#00782b" fill="#00782b" style="animation-play-state:paused"/>
<path d="M-380 625L-191 611L-180 427z" stroke="#00782b" fill="#00782b" style="animation-play-state:paused"/>
<path d="M-180 427L-191 611L9 620z" stroke="#117d2b" fill="#117d2b" style="animation-play-state:paused"/>
<path d="M-185 -151L-205 50L-17 21z" stroke="#00782b" fill="#00782b" style="animation-play-state:paused"/>
<path d="M-184 237L-378 439L-180 427z" stroke="#00782b" fill="#00782b" style="animation-play-state:paused"/>
<path d="M2 -165L-185 -151L-17 21z" stroke="#147e2b" fill="#147e2b" style="animation-play-state:paused"/>
<path d="M1767 819L2330 803L2133 829z" stroke="#00782b" fill="#00782b" style="animation-play-state:paused"/>
<path d="M2133 829L2330 803L2139 611z" stroke="#00782b" fill="#00782b" style="animation-play-state:paused"/>
<path d="M2335 634L2358 -152L2351 25z" stroke="#00782b" fill="#00782b" style="animation-play-state:paused"/>
<path d="M2351 25L2358 -152L2134 34z" stroke="#00782b" fill="#00782b" style="animation-play-state:paused"/>
<path d="M-380 625L-200 809L-191 611z" stroke="#00782b" fill="#00782b" style="animation-play-state:paused"/>
<path d="M-191 611L-200 809L9 620z" stroke="#00782b" fill="#00782b" style="animation-play-state:paused"/>
<path d="M-2 822L-200 809L189 828z" stroke="#19802c" fill="#19802c" style="animation-play-state:paused"/>
<path d="M-383 33L-396 241L-205 50z" stroke="#00782b" fill="#00782b" style="animation-play-state:paused"/>
<path d="M-205 50L-396 241L-184 237z" stroke="#00782b" fill="#00782b" style="animation-play-state:paused"/>
<path d="M-396 241L-378 439L-184 237z" stroke="#00782b" fill="#00782b" style="animation-play-state:paused"/>
<path d="M-378 439L-380 625L-180 427z" stroke="#00782b" fill="#00782b" style="animation-play-state:paused"/>
<path d="M-385 -143L-383 33L-205 50z" stroke="#00782b" fill="#00782b" style="animation-play-state:paused"/>
<path d="M-396 241L-383 33L-378 439z" stroke="#00782b" fill="#00782b" style="animation-play-state:paused"/>
<path d="M2 -165L-385 -143L-185 -151z" stroke="#00782b" fill="#00782b" style="animation-play-state:paused"/>
<path d="M-185 -151L-385 -143L-205 50z" stroke="#00782b" fill="#00782b" style="animation-play-state:paused"/>
<path d="M192 -158L-385 -143L2 -165z" stroke="#087a2b" fill="#087a2b" style="animation-play-state:paused"/>
<path d="M1747 -171L-385 -143L192 -158z" stroke="#65ab2b" fill="#65ab2b" style="animation-play-state:paused"/>
<path d="M-383 33L-402 810L-378 439z" stroke="#00782b" fill="#00782b" style="animation-play-state:paused"/>
<path d="M-378 439L-402 810L-380 625z" stroke="#00782b" fill="#00782b" style="animation-play-state:paused"/>
<path d="M-380 625L-402 810L-200 809z" stroke="#00782b" fill="#00782b" style="animation-play-state:paused"/></g>
<style type="text/css" style="animation-play-state:paused">#bk-0.05064492725704706 path { stroke-width: 1 }</style></g></svg>